<svg xmlns="http://www.w3.org/2000/svg" xmlns:xlink="http://www.w3.org/1999/xlink" width="500" zoomAndPan="magnify" viewBox="0 0 375 374.999991" height="500" preserveAspectRatio="xMidYMid meet" version="1.0"><defs><clipPath id="1ee6c36e6a"><path d="M 46 220 L 125 220 L 125 279 L 46 279 Z M 46 220 " clip-rule="nonzero"/></clipPath><clipPath id="afb81c7263"><path d="M 61.199219 178.234375 L 142.375 199.820312 L 119.054688 287.523438 L 37.878906 265.9375 Z M 61.199219 178.234375 " clip-rule="nonzero"/></clipPath><clipPath id="c91b65fe03"><path d="M 61.199219 178.234375 L 142.375 199.820312 L 119.054688 287.523438 L 37.878906 265.9375 Z M 61.199219 178.234375 " clip-rule="nonzero"/></clipPath><clipPath id="1f949086da"><path d="M 61.199219 178.234375 L 142.375 199.820312 L 119.054688 287.523438 L 37.878906 265.9375 Z M 61.199219 178.234375 " clip-rule="nonzero"/></clipPath><clipPath id="c8bcd37bf5"><path d="M 46 220 L 125 220 L 125 280 L 46 280 Z M 46 220 " clip-rule="nonzero"/></clipPath><clipPath id="d0ba67bf8f"><path d="M 61.199219 178.234375 L 142.375 199.820312 L 119.054688 287.523438 L 37.878906 265.9375 Z M 61.199219 178.234375 " clip-rule="nonzero"/></clipPath><clipPath id="4185a83249"><path d="M 61.199219 178.234375 L 142.375 199.820312 L 119.054688 287.523438 L 37.878906 265.9375 Z M 61.199219 178.234375 " clip-rule="nonzero"/></clipPath><clipPath id="4076289b20"><path d="M 61.199219 178.234375 L 142.375 199.820312 L 119.054688 287.523438 L 37.878906 265.9375 Z M 61.199219 178.234375 " clip-rule="nonzero"/></clipPath><clipPath id="6de9e2d40a"><path d="M 39 185 L 132 185 L 132 286 L 39 286 Z M 39 185 " clip-rule="nonzero"/></clipPath><clipPath id="09466fc1fd"><path d="M 61.199219 178.234375 L 142.375 199.820312 L 119.054688 287.523438 L 37.878906 265.9375 Z M 61.199219 178.234375 " clip-rule="nonzero"/></clipPath><clipPath id="55ee6327e7"><path d="M 61.199219 178.234375 L 142.375 199.820312 L 119.054688 287.523438 L 37.878906 265.9375 Z M 61.199219 178.234375 " clip-rule="nonzero"/></clipPath><clipPath id="1d81c79773"><path d="M 61.199219 178.234375 L 142.375 199.820312 L 119.054688 287.523438 L 37.878906 265.9375 Z M 61.199219 178.234375 " clip-rule="nonzero"/></clipPath><clipPath id="92d7bc9389"><path d="M 72 192 L 119 192 L 119 229 L 72 229 Z M 72 192 " clip-rule="nonzero"/></clipPath><clipPath id="53458b6b03"><path d="M 61.199219 178.234375 L 142.375 199.820312 L 119.054688 287.523438 L 37.878906 265.9375 Z M 61.199219 178.234375 " clip-rule="nonzero"/></clipPath><clipPath id="a0bdd770ec"><path d="M 61.199219 178.234375 L 142.375 199.820312 L 119.054688 287.523438 L 37.878906 265.9375 Z M 61.199219 178.234375 " clip-rule="nonzero"/></clipPath><clipPath id="741af0f530"><path d="M 61.199219 178.234375 L 142.375 199.820312 L 119.054688 287.523438 L 37.878906 265.9375 Z M 61.199219 178.234375 " clip-rule="nonzero"/></clipPath><clipPath id="1a146e8f88"><path d="M 0 54.886719 L 375 54.886719 L 375 320.386719 L 0 320.386719 Z M 0 54.886719 " clip-rule="nonzero"/></clipPath><clipPath id="821a2fa558"><path d="M 8 54.886719 L 375 54.886719 L 375 313 L 8 313 Z M 8 54.886719 " clip-rule="nonzero"/></clipPath><clipPath id="5ec8f5349b"><path d="M 0 54.886719 L 367 54.886719 L 367 320.386719 L 0 320.386719 Z M 0 54.886719 " clip-rule="nonzero"/></clipPath><clipPath id="1dc3f62c8d"><path d="M 0 193 L 146 193 L 146 287 L 0 287 Z M 0 193 " clip-rule="nonzero"/></clipPath><clipPath id="bb639a28ea"><path d="M 16.414062 193.046875 L 145.511719 249.742188 L 129.226562 286.824219 L 0.128906 230.128906 Z M 16.414062 193.046875 " clip-rule="nonzero"/></clipPath><clipPath id="c9bcb1bd21"><path d="M 16.414062 193.046875 L 145.511719 249.742188 L 129.226562 286.824219 L 0.128906 230.128906 Z M 16.414062 193.046875 " clip-rule="nonzero"/></clipPath><clipPath id="5eedbe0e15"><path d="M 16.414062 193.046875 L 145.511719 249.742188 L 129.226562 286.824219 L 0.128906 230.128906 Z M 16.414062 193.046875 " clip-rule="nonzero"/></clipPath><clipPath id="2f9712a663"><path d="M 23 214 L 37 214 L 37 228 L 23 228 Z M 23 214 " clip-rule="nonzero"/></clipPath><clipPath id="0ef6f23d4d"><path d="M 16.414062 193.046875 L 145.511719 249.742188 L 129.226562 286.824219 L 0.128906 230.128906 Z M 16.414062 193.046875 " clip-rule="nonzero"/></clipPath><clipPath id="df7ef6f7db"><path d="M 16.414062 193.046875 L 145.511719 249.742188 L 129.226562 286.824219 L 0.128906 230.128906 Z M 16.414062 193.046875 " clip-rule="nonzero"/></clipPath><clipPath id="87c0bb6317"><path d="M 16.414062 193.046875 L 145.511719 249.742188 L 129.226562 286.824219 L 0.128906 230.128906 Z M 16.414062 193.046875 " clip-rule="nonzero"/></clipPath><clipPath id="89b5eca4c3"><path d="M 34 218 L 49 218 L 49 234 L 34 234 Z M 34 218 " clip-rule="nonzero"/></clipPath><clipPath id="c1570dded9"><path d="M 16.414062 193.046875 L 145.511719 249.742188 L 129.226562 286.824219 L 0.128906 230.128906 Z M 16.414062 193.046875 " clip-rule="nonzero"/></clipPath><clipPath id="2281f3050b"><path d="M 16.414062 193.046875 L 145.511719 249.742188 L 129.226562 286.824219 L 0.128906 230.128906 Z M 16.414062 193.046875 " clip-rule="nonzero"/></clipPath><clipPath id="a3785c1adc"><path d="M 16.414062 193.046875 L 145.511719 249.742188 L 129.226562 286.824219 L 0.128906 230.128906 Z M 16.414062 193.046875 " clip-rule="nonzero"/></clipPath><clipPath id="91ebaf9007"><path d="M 45 223 L 62 223 L 62 240 L 45 240 Z M 45 223 " clip-rule="nonzero"/></clipPath><clipPath id="f8dab567a9"><path d="M 16.414062 193.046875 L 145.511719 249.742188 L 129.226562 286.824219 L 0.128906 230.128906 Z M 16.414062 193.046875 " clip-rule="nonzero"/></clipPath><clipPath id="e079ac4f6e"><path d="M 16.414062 193.046875 L 145.511719 249.742188 L 129.226562 286.824219 L 0.128906 230.128906 Z M 16.414062 193.046875 " clip-rule="nonzero"/></clipPath><clipPath id="60076888ff"><path d="M 16.414062 193.046875 L 145.511719 249.742188 L 129.226562 286.824219 L 0.128906 230.128906 Z M 16.414062 193.046875 " clip-rule="nonzero"/></clipPath><clipPath id="10b4e4e682"><path d="M 58 230 L 73 230 L 73 244 L 58 244 Z M 58 230 " clip-rule="nonzero"/></clipPath><clipPath id="2908c955a5"><path d="M 16.414062 193.046875 L 145.511719 249.742188 L 129.226562 286.824219 L 0.128906 230.128906 Z M 16.414062 193.046875 " clip-rule="nonzero"/></clipPath><clipPath id="228304a600"><path d="M 16.414062 193.046875 L 145.511719 249.742188 L 129.226562 286.824219 L 0.128906 230.128906 Z M 16.414062 193.046875 " clip-rule="nonzero"/></clipPath><clipPath id="51abc41dd8"><path d="M 16.414062 193.046875 L 145.511719 249.742188 L 129.226562 286.824219 L 0.128906 230.128906 Z M 16.414062 193.046875 " clip-rule="nonzero"/></clipPath><clipPath id="8c51690597"><path d="M 71 235 L 86 235 L 86 249 L 71 249 Z M 71 235 " clip-rule="nonzero"/></clipPath><clipPath id="5191d6f75f"><path d="M 16.414062 193.046875 L 145.511719 249.742188 L 129.226562 286.824219 L 0.128906 230.128906 Z M 16.414062 193.046875 " clip-rule="nonzero"/></clipPath><clipPath id="1bab09f893"><path d="M 16.414062 193.046875 L 145.511719 249.742188 L 129.226562 286.824219 L 0.128906 230.128906 Z M 16.414062 193.046875 " clip-rule="nonzero"/></clipPath><clipPath id="8d3e3d2756"><path d="M 16.414062 193.046875 L 145.511719 249.742188 L 129.226562 286.824219 L 0.128906 230.128906 Z M 16.414062 193.046875 " clip-rule="nonzero"/></clipPath><clipPath id="26dc9063fd"><path d="M 83 240 L 98 240 L 98 257 L 83 257 Z M 83 240 " clip-rule="nonzero"/></clipPath><clipPath id="e53ada9e87"><path d="M 16.414062 193.046875 L 145.511719 249.742188 L 129.226562 286.824219 L 0.128906 230.128906 Z M 16.414062 193.046875 " clip-rule="nonzero"/></clipPath><clipPath id="bc084b0b63"><path d="M 16.414062 193.046875 L 145.511719 249.742188 L 129.226562 286.824219 L 0.128906 230.128906 Z M 16.414062 193.046875 " clip-rule="nonzero"/></clipPath><clipPath id="eab35c297f"><path d="M 16.414062 193.046875 L 145.511719 249.742188 L 129.226562 286.824219 L 0.128906 230.128906 Z M 16.414062 193.046875 " clip-rule="nonzero"/></clipPath><clipPath id="6fb6a7f774"><path d="M 96 245 L 111 245 L 111 262 L 96 262 Z M 96 245 " clip-rule="nonzero"/></clipPath><clipPath id="b37f0879ff"><path d="M 16.414062 193.046875 L 145.511719 249.742188 L 129.226562 286.824219 L 0.128906 230.128906 Z M 16.414062 193.046875 " clip-rule="nonzero"/></clipPath><clipPath id="4b8032b9c6"><path d="M 16.414062 193.046875 L 145.511719 249.742188 L 129.226562 286.824219 L 0.128906 230.128906 Z M 16.414062 193.046875 " clip-rule="nonzero"/></clipPath><clipPath id="7d30375a00"><path d="M 16.414062 193.046875 L 145.511719 249.742188 L 129.226562 286.824219 L 0.128906 230.128906 Z M 16.414062 193.046875 " clip-rule="nonzero"/></clipPath><clipPath id="01d2b26b25"><path d="M 107 250 L 123 250 L 123 266 L 107 266 Z M 107 250 " clip-rule="nonzero"/></clipPath><clipPath id="4614ee00b0"><path d="M 16.414062 193.046875 L 145.511719 249.742188 L 129.226562 286.824219 L 0.128906 230.128906 Z M 16.414062 193.046875 " clip-rule="nonzero"/></clipPath><clipPath id="28a192858e"><path d="M 16.414062 193.046875 L 145.511719 249.742188 L 129.226562 286.824219 L 0.128906 230.128906 Z M 16.414062 193.046875 " clip-rule="nonzero"/></clipPath><clipPath id="fcf6b1bb1d"><path d="M 16.414062 193.046875 L 145.511719 249.742188 L 129.226562 286.824219 L 0.128906 230.128906 Z M 16.414062 193.046875 " clip-rule="nonzero"/></clipPath></defs><g clip-path="url(#1ee6c36e6a)"><g clip-path="url(#afb81c7263)"><g clip-path="url(#c91b65fe03)"><g clip-path="url(#1f949086da)"><path fill="#dfaf50" d="M 57.367188 220.550781 L 124.6875 238.453125 L 113.925781 278.925781 L 46.605469 261.023438 Z M 57.367188 220.550781 " fill-opacity="1" fill-rule="nonzero"/></g></g></g></g><g clip-path="url(#c8bcd37bf5)"><g clip-path="url(#d0ba67bf8f)"><g clip-path="url(#4185a83249)"><g clip-path="url(#4076289b20)"><path stroke-linecap="round" transform="matrix(1.272187, 0.338283, -0.338963, 1.274744, 28.178169, 140.564991)" fill="none" stroke-linejoin="round" d="M 37.043054 52.916314 L 89.960315 52.917347 L 89.960491 84.666941 L 37.043229 84.665908 Z M 37.043054 52.916314 " stroke="#000000" stroke-width="0.132" stroke-opacity="1" stroke-miterlimit="4"/></g></g></g></g><g clip-path="url(#6de9e2d40a)"><g clip-path="url(#09466fc1fd)"><g clip-path="url(#55ee6327e7)"><g clip-path="url(#1d81c79773)"><path fill="#362f2c" d="M 88.324219 185.449219 L 86.53125 192.195312 L 99.992188 195.773438 L 106.726562 197.5625 L 113.457031 199.355469 L 115.25 192.609375 L 108.519531 190.816406 L 101.789062 189.027344 L 95.054688 187.238281 Z M 113.457031 199.355469 L 111.664062 206.097656 L 118.394531 207.890625 L 120.191406 201.144531 Z M 118.394531 207.890625 L 116.601562 214.636719 L 114.808594 221.378906 L 113.015625 228.125 L 106.28125 226.335938 L 108.078125 219.589844 L 109.871094 212.84375 L 103.136719 211.054688 L 97.757812 231.292969 L 104.488281 233.082031 L 111.222656 234.871094 L 117.953125 236.660156 L 124.683594 238.453125 L 126.480469 231.707031 L 119.746094 229.914062 L 121.539062 223.171875 L 123.335938 216.425781 L 125.128906 209.679688 Z M 124.683594 238.453125 L 122.890625 245.195312 L 115.71875 272.179688 L 113.921875 278.925781 L 120.65625 280.714844 L 126.035156 260.476562 L 127.828125 253.734375 L 129.625 246.988281 L 131.417969 240.242188 Z M 113.921875 278.925781 L 107.191406 277.132812 L 100.460938 275.34375 L 93.726562 273.554688 L 86.996094 271.765625 L 80.261719 269.972656 L 66.800781 266.394531 L 60.066406 264.605469 L 53.335938 262.8125 L 46.601562 261.023438 L 44.808594 267.769531 L 51.542969 269.558594 L 58.273438 271.347656 L 65.003906 273.140625 L 71.738281 274.929688 L 78.46875 276.71875 L 85.203125 278.511719 L 98.664062 282.089844 L 105.398438 283.878906 L 112.128906 285.671875 Z M 46.601562 261.023438 L 48.398438 254.277344 L 50.191406 247.53125 L 51.984375 240.789062 L 55.570312 227.296875 L 57.367188 220.550781 L 50.632812 218.761719 L 48.839844 225.507812 L 47.046875 232.25 L 45.253906 238.996094 L 43.457031 245.742188 L 39.871094 259.234375 Z M 57.367188 220.550781 L 64.097656 222.339844 L 70.828125 224.132812 L 77.5625 225.921875 L 84.292969 227.710938 L 87.878906 214.21875 L 89.675781 207.472656 L 82.941406 205.683594 L 79.355469 219.175781 L 72.621094 217.386719 L 74.417969 210.640625 L 78.003906 197.148438 L 71.273438 195.359375 L 69.476562 202.105469 L 67.683594 208.851562 L 65.890625 215.59375 L 59.160156 213.804688 Z M 78.003906 197.148438 L 84.734375 198.9375 L 86.53125 192.195312 L 79.796875 190.402344 Z M 89.675781 207.472656 L 96.40625 209.265625 L 103.136719 211.054688 L 104.933594 204.308594 L 98.199219 202.519531 L 91.46875 200.730469 Z M 84.292969 227.710938 L 82.5 234.457031 L 89.230469 236.246094 L 95.964844 238.035156 L 97.757812 231.292969 L 91.023438 229.5 Z M 80.707031 241.203125 L 78.914062 247.949219 L 82.277344 248.84375 L 80.484375 255.589844 L 78.691406 262.332031 L 85.421875 264.125 L 87.214844 257.378906 L 89.011719 250.632812 L 92.375 251.527344 L 94.167969 244.78125 Z M 80.707031 241.203125 " fill-opacity="1" fill-rule="nonzero"/></g></g></g></g><g clip-path="url(#92d7bc9389)"><g clip-path="url(#53458b6b03)"><g clip-path="url(#a0bdd770ec)"><g clip-path="url(#741af0f530)"><path fill="#7ab89a" d="M 86.53125 192.195312 L 84.734375 198.9375 L 78.003906 197.148438 L 72.621094 217.386719 L 79.355469 219.175781 L 82.941406 205.683594 L 89.675781 207.472656 L 91.46875 200.730469 L 104.933594 204.308594 L 103.136719 211.054688 L 109.871094 212.84375 L 106.28125 226.335938 L 113.015625 228.125 L 118.394531 207.890625 L 111.664062 206.097656 L 113.457031 199.355469 Z M 86.53125 192.195312 " fill-opacity="1" fill-rule="nonzero"/></g></g></g></g><g clip-path="url(#1a146e8f88)"><path fill="#ffa364" d="M 366.914062 78.3125 L 366.914062 70.503906 L 359.113281 70.503906 L 359.113281 62.695312 L 343.511719 62.695312 L 343.511719 54.886719 L 288.90625 54.886719 L 288.90625 62.695312 L 265.503906 62.695312 L 265.503906 70.503906 L 249.90625 70.503906 L 249.90625 78.3125 L 234.304688 78.3125 L 234.304688 86.121094 L 218.703125 86.121094 L 218.703125 93.929688 L 210.902344 93.929688 L 210.902344 101.738281 L 203.101562 101.738281 L 203.101562 109.546875 L 187.5 109.546875 L 187.5 117.355469 L 148.496094 117.355469 L 148.496094 109.546875 L 125.09375 109.546875 L 125.09375 117.355469 L 101.695312 117.355469 L 101.695312 125.164062 L 86.09375 125.164062 L 86.09375 132.972656 L 78.292969 132.972656 L 78.292969 140.785156 L 70.492188 140.785156 L 70.492188 148.59375 L 62.691406 148.59375 L 62.691406 156.402344 L 47.089844 156.402344 L 47.089844 164.210938 L 31.488281 164.210938 L 31.488281 172.019531 L 23.6875 172.019531 L 23.6875 179.828125 L 15.886719 179.828125 L 15.886719 187.636719 L 8.085938 187.636719 L 8.085938 203.253906 L 0.285156 203.253906 L 0.285156 226.679688 L 8.085938 226.679688 L 8.085938 234.488281 L 15.886719 234.488281 L 15.886719 242.296875 L 31.488281 242.296875 L 31.488281 234.488281 L 39.289062 234.488281 L 39.289062 226.679688 L 47.089844 226.679688 L 47.089844 218.871094 L 54.890625 218.871094 L 54.890625 211.0625 L 62.691406 211.0625 L 62.691406 203.253906 L 78.292969 203.253906 L 78.292969 195.445312 L 86.09375 195.445312 L 86.09375 187.636719 L 101.695312 187.636719 L 101.695312 179.828125 L 109.496094 179.828125 L 109.496094 172.019531 L 117.296875 172.019531 L 117.296875 164.210938 L 125.09375 164.210938 L 125.09375 156.402344 L 179.699219 156.402344 L 179.699219 148.59375 L 195.300781 148.59375 L 195.300781 156.402344 L 210.902344 156.402344 L 210.902344 164.210938 L 242.105469 164.210938 L 242.105469 172.019531 L 234.304688 172.019531 L 234.304688 187.636719 L 210.902344 187.636719 L 210.902344 195.445312 L 195.300781 195.445312 L 195.300781 203.253906 L 179.699219 203.253906 L 179.699219 211.0625 L 164.097656 211.0625 L 164.097656 218.871094 L 132.894531 218.871094 L 132.894531 226.679688 L 117.296875 226.679688 L 117.296875 234.488281 L 109.496094 234.488281 L 109.496094 242.296875 L 101.695312 242.296875 L 101.695312 250.105469 L 93.894531 250.105469 L 93.894531 265.722656 L 101.695312 265.722656 L 101.695312 281.34375 L 93.894531 281.34375 L 93.894531 289.152344 L 101.695312 289.152344 L 101.695312 296.960938 L 109.496094 296.960938 L 109.496094 304.769531 L 125.09375 304.769531 L 125.09375 312.578125 L 140.695312 312.578125 L 140.695312 320.386719 L 179.699219 320.386719 L 179.699219 312.578125 L 195.300781 312.578125 L 195.300781 304.769531 L 210.902344 304.769531 L 210.902344 296.960938 L 226.503906 296.960938 L 226.503906 289.152344 L 234.304688 289.152344 L 234.304688 281.34375 L 242.105469 281.34375 L 242.105469 273.535156 L 249.90625 273.535156 L 249.90625 265.722656 L 257.703125 265.722656 L 257.703125 257.914062 L 265.503906 257.914062 L 265.503906 250.105469 L 273.304688 250.105469 L 273.304688 242.296875 L 281.105469 242.296875 L 281.105469 226.679688 L 288.90625 226.679688 L 288.90625 187.636719 L 296.707031 187.636719 L 296.707031 203.253906 L 304.507812 203.253906 L 304.507812 218.871094 L 312.308594 218.871094 L 312.308594 226.679688 L 320.109375 226.679688 L 320.109375 218.871094 L 327.910156 218.871094 L 327.910156 203.253906 L 320.109375 203.253906 L 320.109375 187.636719 L 312.308594 187.636719 L 312.308594 172.019531 L 320.109375 172.019531 L 320.109375 179.828125 L 327.910156 179.828125 L 327.910156 187.636719 L 335.710938 187.636719 L 335.710938 195.445312 L 351.3125 195.445312 L 351.3125 203.253906 L 366.914062 203.253906 L 366.914062 187.636719 L 359.113281 187.636719 L 359.113281 179.828125 L 351.3125 179.828125 L 351.3125 172.019531 L 335.710938 172.019531 L 335.710938 164.210938 L 327.910156 164.210938 L 327.910156 148.59375 L 343.511719 148.59375 L 343.511719 140.785156 L 351.3125 140.785156 L 351.3125 132.972656 L 359.113281 132.972656 L 359.113281 125.164062 L 366.914062 125.164062 L 366.914062 109.546875 L 374.714844 109.546875 L 374.714844 78.3125 Z M 125.09375 273.535156 L 109.496094 273.535156 L 109.496094 265.722656 L 125.09375 265.722656 Z M 148.496094 265.722656 L 132.894531 265.722656 L 132.894531 257.914062 L 148.496094 257.914062 Z M 171.898438 257.914062 L 164.097656 257.914062 L 164.097656 250.105469 L 171.898438 250.105469 Z M 288.90625 179.828125 L 281.105469 179.828125 L 281.105469 172.019531 L 273.304688 172.019531 L 273.304688 164.210938 L 281.105469 164.210938 L 281.105469 156.402344 L 288.90625 156.402344 Z M 288.90625 179.828125 " fill-opacity="1" fill-rule="nonzero"/></g><g clip-path="url(#821a2fa558)"><path fill="#ff7d4a" d="M 132.894531 125.164062 L 117.296875 125.164062 L 117.296875 117.355469 L 125.09375 117.355469 L 125.09375 109.546875 L 148.496094 109.546875 L 148.496094 117.355469 L 179.699219 117.355469 L 179.699219 132.972656 L 171.898438 132.972656 L 171.898438 140.785156 L 179.699219 140.785156 L 179.699219 148.59375 L 132.894531 148.59375 L 132.894531 140.785156 L 140.695312 140.785156 L 140.695312 132.972656 L 132.894531 132.972656 Z M 296.707031 156.402344 L 296.707031 164.210938 L 304.507812 164.210938 L 304.507812 148.59375 L 288.90625 148.59375 L 288.90625 156.402344 Z M 320.109375 156.402344 L 327.910156 156.402344 L 327.910156 148.59375 L 312.308594 148.59375 L 312.308594 164.210938 L 320.109375 164.210938 Z M 304.507812 172.019531 L 304.507812 187.636719 L 312.308594 187.636719 L 312.308594 172.019531 Z M 312.308594 187.636719 L 312.308594 203.253906 L 320.109375 203.253906 L 320.109375 187.636719 Z M 320.109375 218.871094 L 327.910156 218.871094 L 327.910156 203.253906 L 320.109375 203.253906 Z M 327.910156 164.210938 L 327.910156 172.019531 L 335.710938 172.019531 L 335.710938 164.210938 Z M 335.710938 172.019531 L 335.710938 179.828125 L 351.3125 179.828125 L 351.3125 172.019531 Z M 351.3125 179.828125 L 351.3125 187.636719 L 359.113281 187.636719 L 359.113281 179.828125 Z M 359.113281 203.253906 L 366.914062 203.253906 L 366.914062 187.636719 L 359.113281 187.636719 Z M 320.109375 140.785156 L 335.710938 140.785156 L 335.710938 132.972656 L 320.109375 132.972656 Z M 335.710938 132.972656 L 343.511719 132.972656 L 343.511719 125.164062 L 335.710938 125.164062 Z M 343.511719 125.164062 L 351.3125 125.164062 L 351.3125 117.355469 L 343.511719 117.355469 Z M 101.695312 265.722656 L 109.496094 265.722656 L 109.496094 257.914062 L 101.695312 257.914062 Z M 109.496094 257.914062 L 132.894531 257.914062 L 132.894531 250.105469 L 109.496094 250.105469 Z M 132.894531 250.105469 L 164.097656 250.105469 L 164.097656 242.296875 L 132.894531 242.296875 Z M 164.097656 234.488281 L 164.097656 242.296875 L 171.898438 242.296875 L 171.898438 234.488281 Z M 171.898438 242.296875 L 171.898438 250.105469 L 179.699219 250.105469 L 179.699219 242.296875 Z M 187.5 250.105469 L 179.699219 250.105469 L 179.699219 257.914062 L 187.5 257.914062 Z M 179.699219 257.914062 L 171.898438 257.914062 L 171.898438 265.722656 L 179.699219 265.722656 Z M 171.898438 265.722656 L 148.496094 265.722656 L 148.496094 273.535156 L 171.898438 273.535156 Z M 148.496094 273.535156 L 125.09375 273.535156 L 125.09375 281.34375 L 148.496094 281.34375 Z M 234.304688 179.828125 L 242.105469 179.828125 L 242.105469 172.019531 L 234.304688 172.019531 Z M 265.503906 172.019531 L 265.503906 164.210938 L 242.105469 164.210938 L 242.105469 172.019531 L 257.703125 172.019531 L 257.703125 179.828125 L 273.304688 179.828125 L 273.304688 172.019531 Z M 273.304688 195.445312 L 265.503906 195.445312 L 265.503906 218.871094 L 257.703125 218.871094 L 257.703125 234.488281 L 249.90625 234.488281 L 249.90625 250.105469 L 242.105469 250.105469 L 242.105469 265.722656 L 249.90625 265.722656 L 249.90625 257.914062 L 257.703125 257.914062 L 257.703125 250.105469 L 265.503906 250.105469 L 265.503906 242.296875 L 273.304688 242.296875 L 273.304688 226.679688 L 281.105469 226.679688 L 281.105469 179.828125 L 273.304688 179.828125 Z M 234.304688 273.535156 L 242.105469 273.535156 L 242.105469 265.722656 L 234.304688 265.722656 Z M 187.5 296.960938 L 132.894531 296.960938 L 132.894531 289.152344 L 125.09375 289.152344 L 125.09375 281.34375 L 101.695312 281.34375 L 101.695312 289.152344 L 109.496094 289.152344 L 109.496094 296.960938 L 125.09375 296.960938 L 125.09375 304.769531 L 140.695312 304.769531 L 140.695312 312.578125 L 179.699219 312.578125 L 179.699219 304.769531 L 195.300781 304.769531 L 195.300781 296.960938 L 210.902344 296.960938 L 210.902344 289.152344 L 187.5 289.152344 Z M 210.902344 289.152344 L 226.503906 289.152344 L 226.503906 281.34375 L 210.902344 281.34375 Z M 226.503906 281.34375 L 234.304688 281.34375 L 234.304688 273.535156 L 226.503906 273.535156 Z M 288.90625 54.886719 L 288.90625 62.695312 L 327.910156 62.695312 L 327.910156 54.886719 Z M 327.910156 62.695312 L 327.910156 70.503906 L 335.710938 70.503906 L 335.710938 62.695312 Z M 335.710938 70.503906 L 335.710938 86.121094 L 343.511719 86.121094 L 343.511719 70.503906 Z M 351.3125 93.929688 L 351.3125 86.121094 L 343.511719 86.121094 L 343.511719 109.546875 L 351.3125 109.546875 L 351.3125 117.355469 L 359.113281 117.355469 L 359.113281 125.164062 L 366.914062 125.164062 L 366.914062 93.929688 Z M 249.90625 70.503906 L 249.90625 78.3125 L 288.90625 78.3125 L 288.90625 70.503906 Z M 288.90625 78.3125 L 288.90625 86.121094 L 296.707031 86.121094 L 296.707031 78.3125 Z M 296.707031 86.121094 L 296.707031 93.929688 L 312.308594 93.929688 L 312.308594 86.121094 Z M 312.308594 93.929688 L 312.308594 101.738281 L 320.109375 101.738281 L 320.109375 93.929688 Z M 335.710938 109.546875 L 335.710938 117.355469 L 343.511719 117.355469 L 343.511719 109.546875 Z M 366.914062 78.3125 L 366.914062 93.929688 L 374.714844 93.929688 L 374.714844 78.3125 Z M 327.910156 125.164062 L 327.910156 101.738281 L 320.109375 101.738281 L 320.109375 117.355469 L 312.308594 117.355469 L 312.308594 125.164062 L 296.707031 125.164062 L 296.707031 132.972656 L 273.304688 132.972656 L 273.304688 140.785156 L 249.90625 140.785156 L 249.90625 148.59375 L 210.902344 148.59375 L 210.902344 156.402344 L 281.105469 156.402344 L 281.105469 148.59375 L 288.90625 148.59375 L 288.90625 140.785156 L 312.308594 140.785156 L 312.308594 132.972656 L 320.109375 132.972656 L 320.109375 125.164062 Z M 23.6875 234.488281 L 31.488281 234.488281 L 31.488281 226.679688 L 23.6875 226.679688 Z M 31.488281 226.679688 L 39.289062 226.679688 L 39.289062 218.871094 L 31.488281 218.871094 Z M 39.289062 218.871094 L 47.089844 218.871094 L 47.089844 211.0625 L 39.289062 211.0625 Z M 47.089844 211.0625 L 54.890625 211.0625 L 54.890625 203.253906 L 47.089844 203.253906 Z M 54.890625 203.253906 L 62.691406 203.253906 L 62.691406 195.445312 L 54.890625 195.445312 Z M 62.691406 195.445312 L 78.292969 195.445312 L 78.292969 187.636719 L 62.691406 187.636719 Z M 78.292969 187.636719 L 86.09375 187.636719 L 86.09375 179.828125 L 78.292969 179.828125 Z M 101.695312 172.019531 L 86.09375 172.019531 L 86.09375 179.828125 L 101.695312 179.828125 Z M 109.496094 164.210938 L 101.695312 164.210938 L 101.695312 172.019531 L 109.496094 172.019531 Z M 117.296875 156.402344 L 109.496094 156.402344 L 109.496094 164.210938 L 117.296875 164.210938 Z M 125.09375 148.59375 L 117.296875 148.59375 L 117.296875 156.402344 L 125.09375 156.402344 Z M 15.886719 218.871094 L 15.886719 211.0625 L 8.085938 211.0625 L 8.085938 226.679688 L 23.6875 226.679688 L 23.6875 218.871094 Z M 31.488281 211.0625 L 23.6875 211.0625 L 23.6875 218.871094 L 31.488281 218.871094 Z M 39.289062 195.445312 L 31.488281 195.445312 L 31.488281 211.0625 L 39.289062 211.0625 Z M 47.089844 187.636719 L 39.289062 187.636719 L 39.289062 195.445312 L 47.089844 195.445312 Z M 203.101562 132.972656 L 210.902344 132.972656 L 210.902344 117.355469 L 203.101562 117.355469 Z M 218.703125 117.355469 L 218.703125 109.546875 L 210.902344 109.546875 L 210.902344 117.355469 Z M 226.503906 132.972656 L 226.503906 117.355469 L 218.703125 117.355469 L 218.703125 132.972656 Z M 203.101562 109.546875 L 195.300781 109.546875 L 195.300781 117.355469 L 203.101562 117.355469 Z M 210.902344 101.738281 L 203.101562 101.738281 L 203.101562 109.546875 L 210.902344 109.546875 Z M 218.703125 93.929688 L 210.902344 93.929688 L 210.902344 101.738281 L 218.703125 101.738281 Z M 234.304688 86.121094 L 218.703125 86.121094 L 218.703125 93.929688 L 234.304688 93.929688 Z M 242.105469 78.3125 L 234.304688 78.3125 L 234.304688 86.121094 L 242.105469 86.121094 Z M 242.105469 78.3125 " fill-opacity="1" fill-rule="nonzero"/></g><g clip-path="url(#5ec8f5349b)"><path fill="#f95928" d="M 312.308594 132.972656 L 320.109375 132.972656 L 320.109375 140.785156 L 343.511719 140.785156 L 343.511719 148.59375 L 312.308594 148.59375 L 312.308594 172.019531 L 304.507812 172.019531 L 304.507812 148.59375 L 288.90625 148.59375 L 288.90625 140.785156 L 312.308594 140.785156 Z M 281.105469 156.402344 L 288.90625 156.402344 L 288.90625 148.59375 L 281.105469 148.59375 Z M 210.902344 164.210938 L 265.503906 164.210938 L 265.503906 172.019531 L 273.304688 172.019531 L 273.304688 164.210938 L 281.105469 164.210938 L 281.105469 156.402344 L 210.902344 156.402344 Z M 281.105469 179.828125 L 281.105469 172.019531 L 273.304688 172.019531 L 273.304688 179.828125 Z M 288.90625 226.679688 L 288.90625 179.828125 L 281.105469 179.828125 L 281.105469 226.679688 Z M 273.304688 242.296875 L 281.105469 242.296875 L 281.105469 226.679688 L 273.304688 226.679688 Z M 265.503906 250.105469 L 273.304688 250.105469 L 273.304688 242.296875 L 265.503906 242.296875 Z M 257.703125 257.914062 L 265.503906 257.914062 L 265.503906 250.105469 L 257.703125 250.105469 Z M 249.90625 265.722656 L 257.703125 265.722656 L 257.703125 257.914062 L 249.90625 257.914062 Z M 242.105469 273.535156 L 249.90625 273.535156 L 249.90625 265.722656 L 242.105469 265.722656 Z M 234.304688 281.34375 L 242.105469 281.34375 L 242.105469 273.535156 L 234.304688 273.535156 Z M 226.503906 289.152344 L 234.304688 289.152344 L 234.304688 281.34375 L 226.503906 281.34375 Z M 210.902344 296.960938 L 226.503906 296.960938 L 226.503906 289.152344 L 210.902344 289.152344 Z M 195.300781 304.769531 L 210.902344 304.769531 L 210.902344 296.960938 L 195.300781 296.960938 Z M 179.699219 312.578125 L 195.300781 312.578125 L 195.300781 304.769531 L 179.699219 304.769531 Z M 140.695312 320.386719 L 179.699219 320.386719 L 179.699219 312.578125 L 140.695312 312.578125 Z M 125.09375 304.769531 L 125.09375 312.578125 L 140.695312 312.578125 L 140.695312 304.769531 Z M 109.496094 296.960938 L 109.496094 304.769531 L 125.09375 304.769531 L 125.09375 296.960938 Z M 101.695312 289.152344 L 101.695312 296.960938 L 109.496094 296.960938 L 109.496094 289.152344 Z M 93.894531 281.34375 L 93.894531 289.152344 L 101.695312 289.152344 L 101.695312 281.34375 Z M 125.09375 273.535156 L 109.496094 273.535156 L 109.496094 265.722656 L 101.695312 265.722656 L 101.695312 281.34375 L 125.09375 281.34375 Z M 125.09375 273.535156 L 148.496094 273.535156 L 148.496094 265.722656 L 132.894531 265.722656 L 132.894531 257.914062 L 109.496094 257.914062 L 109.496094 265.722656 L 125.09375 265.722656 Z M 148.496094 265.722656 L 171.898438 265.722656 L 171.898438 257.914062 L 164.097656 257.914062 L 164.097656 250.105469 L 132.894531 250.105469 L 132.894531 257.914062 L 148.496094 257.914062 Z M 179.699219 257.914062 L 179.699219 250.105469 L 171.898438 250.105469 L 171.898438 257.914062 Z M 171.898438 242.296875 L 164.097656 242.296875 L 164.097656 250.105469 L 171.898438 250.105469 Z M 93.894531 250.105469 L 93.894531 265.722656 L 101.695312 265.722656 L 101.695312 250.105469 Z M 195.300781 148.59375 L 195.300781 156.402344 L 210.902344 156.402344 L 210.902344 148.59375 Z M 179.699219 140.785156 L 179.699219 148.59375 L 195.300781 148.59375 L 195.300781 140.785156 Z M 171.898438 132.972656 L 171.898438 140.785156 L 179.699219 140.785156 L 179.699219 132.972656 Z M 187.5 117.355469 L 179.699219 117.355469 L 179.699219 132.972656 L 187.5 132.972656 Z M 320.109375 132.972656 L 335.710938 132.972656 L 335.710938 125.164062 L 320.109375 125.164062 Z M 335.710938 125.164062 L 343.511719 125.164062 L 343.511719 117.355469 L 335.710938 117.355469 Z M 343.511719 117.355469 L 351.3125 117.355469 L 351.3125 109.546875 L 343.511719 109.546875 Z M 31.488281 234.488281 L 39.289062 234.488281 L 39.289062 226.679688 L 31.488281 226.679688 Z M 39.289062 226.679688 L 47.089844 226.679688 L 47.089844 218.871094 L 39.289062 218.871094 Z M 47.089844 218.871094 L 54.890625 218.871094 L 54.890625 211.0625 L 47.089844 211.0625 Z M 54.890625 211.0625 L 62.691406 211.0625 L 62.691406 203.253906 L 54.890625 203.253906 Z M 62.691406 203.253906 L 78.292969 203.253906 L 78.292969 195.445312 L 62.691406 195.445312 Z M 78.292969 195.445312 L 86.09375 195.445312 L 86.09375 187.636719 L 78.292969 187.636719 Z M 86.09375 187.636719 L 101.695312 187.636719 L 101.695312 179.828125 L 86.09375 179.828125 Z M 101.695312 179.828125 L 109.496094 179.828125 L 109.496094 172.019531 L 101.695312 172.019531 Z M 109.496094 172.019531 L 117.296875 172.019531 L 117.296875 164.210938 L 109.496094 164.210938 Z M 117.296875 164.210938 L 125.09375 164.210938 L 125.09375 156.402344 L 117.296875 156.402344 Z M 31.488281 218.871094 L 23.6875 218.871094 L 23.6875 226.679688 L 31.488281 226.679688 Z M 39.289062 211.0625 L 31.488281 211.0625 L 31.488281 218.871094 L 39.289062 218.871094 Z M 47.089844 195.445312 L 39.289062 195.445312 L 39.289062 211.0625 L 47.089844 211.0625 Z M 62.691406 179.828125 L 54.890625 179.828125 L 54.890625 187.636719 L 62.691406 187.636719 Z M 70.492188 172.019531 L 62.691406 172.019531 L 62.691406 179.828125 L 70.492188 179.828125 Z M 78.292969 164.210938 L 70.492188 164.210938 L 70.492188 172.019531 L 78.292969 172.019531 Z M 93.894531 156.402344 L 78.292969 156.402344 L 78.292969 164.210938 L 93.894531 164.210938 Z M 54.890625 187.636719 L 47.089844 187.636719 L 47.089844 195.445312 L 54.890625 195.445312 Z M 125.09375 156.402344 L 179.699219 156.402344 L 179.699219 148.59375 L 125.09375 148.59375 Z M 0.285156 203.253906 L 0.285156 226.679688 L 8.085938 226.679688 L 8.085938 203.253906 Z M 23.6875 226.679688 L 8.085938 226.679688 L 8.085938 234.488281 L 15.886719 234.488281 L 15.886719 242.296875 L 31.488281 242.296875 L 31.488281 234.488281 L 23.6875 234.488281 Z M 148.496094 109.546875 L 132.894531 109.546875 L 132.894531 117.355469 L 148.496094 117.355469 Z M 359.113281 101.738281 L 359.113281 93.929688 L 351.3125 93.929688 L 351.3125 109.546875 L 366.914062 109.546875 L 366.914062 101.738281 Z M 273.304688 70.503906 L 249.90625 70.503906 L 249.90625 78.3125 L 273.304688 78.3125 Z M 312.308594 54.886719 L 288.90625 54.886719 L 288.90625 62.695312 L 312.308594 62.695312 Z M 312.308594 54.886719 " fill-opacity="1" fill-rule="nonzero"/></g><path fill="#262626" d="M 210.902344 117.355469 L 218.703125 117.355469 L 218.703125 132.972656 L 210.902344 132.972656 Z M 210.902344 117.355469 " fill-opacity="1" fill-rule="nonzero"/><path fill="#ffffff" d="M 187.5 289.152344 L 156.296875 289.152344 L 156.296875 281.34375 L 187.5 281.34375 Z M 226.503906 101.738281 L 242.105469 101.738281 L 242.105469 93.929688 L 226.503906 93.929688 Z M 242.105469 93.929688 L 257.703125 93.929688 L 257.703125 86.121094 L 242.105469 86.121094 Z M 218.703125 109.546875 L 226.503906 109.546875 L 226.503906 101.738281 L 218.703125 101.738281 Z M 320.109375 70.503906 L 296.707031 70.503906 L 296.707031 62.695312 L 320.109375 62.695312 Z M 31.488281 179.828125 L 39.289062 179.828125 L 39.289062 172.019531 L 31.488281 172.019531 Z M 23.6875 179.828125 L 31.488281 179.828125 L 31.488281 187.636719 L 23.6875 187.636719 Z M 23.6875 187.636719 L 15.886719 187.636719 L 15.886719 195.445312 L 23.6875 195.445312 Z M 187.5 281.34375 L 203.101562 281.34375 L 203.101562 273.535156 L 187.5 273.535156 Z M 203.101562 273.535156 L 210.902344 273.535156 L 210.902344 265.722656 L 203.101562 265.722656 Z M 210.902344 265.722656 L 218.703125 265.722656 L 218.703125 257.914062 L 210.902344 257.914062 Z M 210.902344 265.722656 " fill-opacity="1" fill-rule="nonzero"/><g clip-path="url(#1dc3f62c8d)"><g clip-path="url(#bb639a28ea)"><g clip-path="url(#c9bcb1bd21)"><g clip-path="url(#5eedbe0e15)"><path fill="#0b021a" d="M 16.453125 193.0625 L 145.472656 249.726562 L 129.1875 286.808594 L 0.167969 230.144531 Z M 16.453125 193.0625 " fill-opacity="1" fill-rule="nonzero"/></g></g></g></g><g clip-path="url(#2f9712a663)"><g clip-path="url(#0ef6f23d4d)"><g clip-path="url(#df7ef6f7db)"><g clip-path="url(#87c0bb6317)"><path fill="#ffffff" d="M 27.398438 227.207031 C 26.492188 226.808594 25.707031 226.289062 25.058594 225.65625 C 24.410156 225.023438 23.925781 224.308594 23.597656 223.503906 C 23.261719 222.714844 23.109375 221.867188 23.109375 220.996094 C 23.113281 220.113281 23.304688 219.242188 23.6875 218.367188 C 24.070312 217.492188 24.589844 216.75 25.238281 216.148438 C 25.886719 215.546875 26.605469 215.097656 27.429688 214.816406 C 28.234375 214.53125 29.109375 214.410156 30.019531 214.445312 C 30.921875 214.492188 31.835938 214.722656 32.742188 215.121094 C 33.765625 215.570312 34.613281 216.148438 35.277344 216.859375 C 35.957031 217.574219 36.417969 218.402344 36.679688 219.3125 L 34.203125 220.136719 C 34.007812 219.511719 33.722656 218.972656 33.328125 218.519531 C 32.929688 218.066406 32.441406 217.714844 31.855469 217.457031 C 31.300781 217.210938 30.761719 217.082031 30.226562 217.070312 C 29.691406 217.0625 29.171875 217.128906 28.6875 217.316406 C 28.203125 217.503906 27.769531 217.78125 27.386719 218.167969 C 27 218.535156 26.6875 219.007812 26.445312 219.5625 C 26.203125 220.113281 26.066406 220.664062 26.058594 221.199219 C 26.050781 221.730469 26.121094 222.25 26.308594 222.730469 C 26.5 223.214844 26.777344 223.648438 27.171875 224.03125 C 27.539062 224.417969 28.015625 224.730469 28.554688 224.96875 C 29.140625 225.226562 29.734375 225.347656 30.339844 225.320312 C 30.941406 225.304688 31.53125 225.148438 32.132812 224.855469 L 33.199219 227.234375 C 32.34375 227.675781 31.417969 227.875 30.4375 227.878906 C 29.445312 227.878906 28.425781 227.65625 27.398438 227.207031 Z M 27.398438 227.207031 " fill-opacity="1" fill-rule="nonzero"/></g></g></g></g><g clip-path="url(#89b5eca4c3)"><g clip-path="url(#c1570dded9)"><g clip-path="url(#2281f3050b)"><g clip-path="url(#a3785c1adc)"><path fill="#ffffff" d="M 37.835938 228.957031 L 44.234375 231.765625 L 43.28125 233.9375 L 34.175781 229.9375 L 39.316406 218.234375 L 48.203125 222.132812 L 47.25 224.304688 L 41.074219 221.589844 Z M 39.753906 224.035156 L 45.417969 226.523438 L 44.484375 228.648438 L 38.820312 226.160156 Z M 39.753906 224.035156 " fill-opacity="1" fill-rule="nonzero"/></g></g></g></g><g clip-path="url(#91ebaf9007)"><g clip-path="url(#f8dab567a9)"><g clip-path="url(#e079ac4f6e)"><g clip-path="url(#60076888ff)"><path fill="#ffffff" d="M 45.445312 234.886719 L 50.585938 223.183594 L 52.839844 224.171875 L 56.074219 235.648438 L 54.976562 235.164062 L 58.679688 226.738281 L 61.371094 227.917969 L 56.234375 239.625 L 53.980469 238.632812 L 50.742188 227.160156 L 51.839844 227.640625 L 48.140625 236.070312 Z M 45.445312 234.886719 " fill-opacity="1" fill-rule="nonzero"/></g></g></g></g><g clip-path="url(#10b4e4e682)"><g clip-path="url(#2908c955a5)"><g clip-path="url(#228304a600)"><g clip-path="url(#51abc41dd8)"><path fill="#ffffff" d="M 62.816406 242.757812 C 61.878906 242.347656 61.03125 241.816406 60.273438 241.191406 C 59.519531 240.566406 58.964844 239.921875 58.609375 239.296875 L 60.429688 237.664062 C 60.765625 238.246094 61.222656 238.792969 61.828125 239.320312 C 62.414062 239.855469 63.066406 240.28125 63.785156 240.597656 C 64.324219 240.832031 64.773438 240.960938 65.15625 241.007812 C 65.542969 241.039062 65.84375 240.996094 66.082031 240.890625 C 66.324219 240.773438 66.488281 240.601562 66.59375 240.355469 C 66.730469 240.050781 66.722656 239.75 66.554688 239.453125 C 66.390625 239.152344 66.132812 238.867188 65.773438 238.570312 C 65.414062 238.273438 65.027344 237.964844 64.589844 237.648438 C 64.152344 237.335938 63.726562 236.992188 63.304688 236.636719 C 62.886719 236.277344 62.523438 235.875 62.222656 235.445312 C 61.921875 235.019531 61.746094 234.542969 61.675781 234.027344 C 61.621094 233.515625 61.714844 232.949219 61.980469 232.335938 C 62.277344 231.667969 62.71875 231.132812 63.328125 230.742188 C 63.921875 230.339844 64.671875 230.148438 65.550781 230.136719 C 66.429688 230.121094 67.421875 230.367188 68.53125 230.855469 C 69.28125 231.183594 69.957031 231.585938 70.613281 232.082031 C 71.253906 232.570312 71.769531 233.109375 72.164062 233.683594 L 70.402344 235.339844 C 70.011719 234.804688 69.566406 234.347656 69.078125 233.941406 C 68.585938 233.554688 68.085938 233.226562 67.570312 233.003906 C 67.03125 232.765625 66.582031 232.636719 66.207031 232.613281 C 65.835938 232.585938 65.53125 232.644531 65.28125 232.777344 C 65.042969 232.917969 64.875 233.105469 64.765625 233.351562 C 64.632812 233.65625 64.632812 233.96875 64.800781 234.269531 C 64.964844 234.566406 65.222656 234.855469 65.589844 235.136719 C 65.953125 235.417969 66.339844 235.726562 66.792969 236.046875 C 67.246094 236.367188 67.671875 236.710938 68.085938 237.082031 C 68.496094 237.457031 68.851562 237.839844 69.152344 238.265625 C 69.460938 238.679688 69.636719 239.15625 69.707031 239.671875 C 69.777344 240.1875 69.683594 240.757812 69.421875 241.351562 C 69.132812 242.007812 68.691406 242.542969 68.085938 242.921875 C 67.480469 243.3125 66.730469 243.503906 65.851562 243.519531 C 64.925781 243.476562 63.929688 243.246094 62.816406 242.757812 Z M 62.816406 242.757812 " fill-opacity="1" fill-rule="nonzero"/></g></g></g></g><g clip-path="url(#8c51690597)"><g clip-path="url(#5191d6f75f)"><g clip-path="url(#1bab09f893)"><g clip-path="url(#8d3e3d2756)"><path fill="#ffffff" d="M 75.375 248.273438 C 74.4375 247.863281 73.652344 247.34375 72.996094 246.691406 C 72.339844 246.039062 71.851562 245.320312 71.503906 244.523438 C 71.160156 243.714844 70.988281 242.875 71 242.011719 C 71.003906 241.128906 71.195312 240.257812 71.574219 239.398438 C 71.957031 238.523438 72.476562 237.777344 73.117188 237.191406 C 73.757812 236.605469 74.492188 236.164062 75.300781 235.875 C 76.121094 235.59375 76.988281 235.453125 77.90625 235.507812 C 78.816406 235.542969 79.742188 235.777344 80.664062 236.183594 C 81.601562 236.59375 82.386719 237.113281 83.035156 237.746094 C 83.683594 238.375 84.183594 239.101562 84.527344 239.910156 C 84.871094 240.722656 85.042969 241.5625 85.03125 242.425781 C 85.027344 243.308594 84.835938 244.179688 84.445312 245.066406 C 84.0625 245.941406 83.550781 246.671875 82.902344 247.273438 C 82.253906 247.875 81.519531 248.316406 80.703125 248.617188 C 79.875 248.914062 79.023438 249.027344 78.097656 248.984375 C 77.207031 248.90625 76.296875 248.679688 75.375 248.273438 Z M 76.367188 245.964844 C 76.894531 246.199219 77.417969 246.324219 77.9375 246.328125 C 78.460938 246.328125 78.972656 246.242188 79.457031 246.054688 C 79.9375 245.867188 80.382812 245.574219 80.753906 245.199219 C 81.128906 244.828125 81.457031 244.363281 81.699219 243.808594 C 81.941406 243.257812 82.078125 242.707031 82.085938 242.171875 C 82.09375 241.636719 82.015625 241.136719 81.832031 240.636719 C 81.644531 240.15625 81.363281 239.71875 81.007812 239.339844 C 80.652344 238.957031 80.207031 238.65625 79.679688 238.425781 C 79.152344 238.195312 78.632812 238.070312 78.097656 238.058594 C 77.558594 238.050781 77.0625 238.144531 76.578125 238.332031 C 76.097656 238.519531 75.667969 238.816406 75.28125 239.183594 C 74.890625 239.550781 74.578125 240.023438 74.335938 240.578125 C 74.09375 241.128906 73.957031 241.675781 73.949219 242.210938 C 73.941406 242.746094 74.019531 243.25 74.203125 243.746094 C 74.390625 244.230469 74.65625 244.660156 75.027344 245.046875 C 75.398438 245.4375 75.84375 245.734375 76.367188 245.964844 Z M 76.367188 245.964844 " fill-opacity="1" fill-rule="nonzero"/></g></g></g></g><g clip-path="url(#26dc9063fd)"><g clip-path="url(#e53ada9e87)"><g clip-path="url(#bc084b0b63)"><g clip-path="url(#eab35c297f)"><path fill="#ffffff" d="M 83.9375 251.789062 L 89.078125 240.085938 L 94.171875 242.320312 C 95.222656 242.785156 96.054688 243.359375 96.667969 244.027344 C 97.28125 244.695312 97.648438 245.449219 97.800781 246.261719 C 97.929688 247.082031 97.808594 247.914062 97.421875 248.789062 C 97.039062 249.660156 96.503906 250.328125 95.8125 250.789062 C 95.125 251.234375 94.316406 251.453125 93.40625 251.453125 C 92.5 251.453125 91.523438 251.214844 90.46875 250.75 L 86.867188 249.171875 L 88.625 248.550781 L 86.671875 252.992188 Z M 88.496094 248.84375 L 87.8125 247.015625 L 91.253906 248.527344 C 92.085938 248.894531 92.792969 248.996094 93.378906 248.816406 C 93.957031 248.652344 94.398438 248.242188 94.679688 247.601562 C 94.960938 246.960938 94.964844 246.351562 94.695312 245.816406 C 94.425781 245.28125 93.871094 244.832031 93.039062 244.464844 L 89.597656 242.953125 L 91.40625 242.21875 Z M 91.429688 255.082031 L 90.339844 249.53125 L 93.265625 250.816406 L 94.355469 256.367188 Z M 91.429688 255.082031 " fill-opacity="1" fill-rule="nonzero"/></g></g></g></g><g clip-path="url(#6fb6a7f774)"><g clip-path="url(#b37f0879ff)"><g clip-path="url(#4b8032b9c6)"><g clip-path="url(#7d30375a00)"><path fill="#ffffff" d="M 99.949219 256.234375 L 106.34375 259.042969 L 105.390625 261.214844 L 96.289062 257.214844 L 101.429688 245.511719 L 110.3125 249.410156 L 109.359375 251.582031 L 103.167969 248.863281 L 99.933594 256.230469 Z M 101.867188 251.3125 L 107.53125 253.800781 L 106.597656 255.925781 L 100.933594 253.4375 Z M 101.867188 251.3125 " fill-opacity="1" fill-rule="nonzero"/></g></g></g></g><g clip-path="url(#01d2b26b25)"><g clip-path="url(#4614ee00b0)"><g clip-path="url(#28a192858e)"><g clip-path="url(#fcf6b1bb1d)"><path fill="#ffffff" d="M 107.558594 262.164062 L 112.699219 250.457031 L 118.039062 252.804688 C 119.3125 253.363281 120.332031 254.105469 121.101562 255.015625 C 121.871094 255.929688 122.332031 256.945312 122.488281 258.058594 C 122.660156 259.175781 122.46875 260.324219 121.953125 261.503906 C 121.433594 262.683594 120.703125 263.59375 119.777344 264.230469 C 118.839844 264.859375 117.777344 265.210938 116.597656 265.265625 C 115.40625 265.316406 114.171875 265.070312 112.898438 264.511719 Z M 111.265625 261.152344 L 113.738281 262.238281 C 114.53125 262.585938 115.265625 262.738281 115.980469 262.703125 C 116.679688 262.660156 117.316406 262.4375 117.882812 262.027344 C 118.449219 261.617188 118.890625 261.046875 119.214844 260.304688 C 119.542969 259.558594 119.667969 258.835938 119.582031 258.15625 C 119.5 257.472656 119.246094 256.859375 118.792969 256.296875 C 118.351562 255.753906 117.726562 255.308594 116.9375 254.960938 L 114.460938 253.875 Z M 111.265625 261.152344 " fill-opacity="1" fill-rule="nonzero"/></g></g></g></g></svg>